
<svg xmlns="http://www.w3.org/2000/svg" width="500" height="500"><g fill="none" stroke="#000" stroke-width=".5" stroke-miterlimit="10">
<path d="M57.378 128.492s.379-2.008.379-3.066c0-6.907-5.599-12.506-12.506-12.506s-12.506 5.599-12.506 12.506c0 1.079.137 2.125.393 3.124l-13.762-1.09s-2.75-3.125-2.75-5.875v-9.625s6.5-8.75 33.5-11.125c0 0 20.375-12.125 36.5-14s34-1.625 44.75.625c0 0 16.125 6.625 17.5 17.375 0 0 .125 6.25 4.25 7.875v6.875s-1.5 6.625-5.5 6.625h-5.708l-.285-.617c0-6.907-5.599-12.506-12.506-12.506s-12.506 5.599-12.506 12.506c0 1.079.137 2.125.393 3.124l-59.636-.225z"/>
<path stroke-linecap="round" stroke-linejoin="round" d="M79.458 88.127l.708 1.583s6.625-1.833 17.625-2.083 16.875-.208 16.875-.208 3.5.042 6.625.958l8.75.208 1.917-.958s-6.25-1.792-16.75-1.958c-10.5-.167-19.822.248-24 .583-4.666.375-11.75 1.875-11.75 1.875zM126.875 98.304l8.531-.938s1.531 1.938 1.813 2.281c0 0 2.531 6.281 5.469 8.875l-7.281 6.312s-2.625-2.125-6.75-1.719c-4.125.406-5.469 1.406-5.469 1.406s-3.562 2.094-5 4.937c-1.437 2.844-1.687 5.219-1.687 5.219h-3.719l6.781-10.094 7.188-10.281.124-5.998zM59.875 104.116s-18.75.063-24.75 1.563c0 0 3.125.344 3.938 1.531 0 0-2 1.375-3.688 2.094l4.156 4.844s3.219-1.75 7.25-1.156c4.031.594 6.625 2.625 7.875 4.125 1.077 1.292 3.031 3.906 3.031 7.5h2.75c0-.001-1.312-14.657-.562-20.501z"/>
<path stroke-linecap="round" stroke-linejoin="round" d="M129.161 115.176c-5.661 0-10.25 4.589-10.25 10.25s4.589 10.25 10.25 10.25 10.25-4.589 10.25-10.25c0-5.66-4.589-10.25-10.25-10.25zm0 18.231a7.98 7.98 0 0 1-7.981-7.981c0-4.408 3.573-7.981 7.981-7.981s7.981 3.573 7.981 7.981a7.98 7.98 0 0 1-7.981 7.981zM45.25 115.176c-5.661 0-10.25 4.589-10.25 10.25s4.589 10.25 10.25 10.25 10.25-4.589 10.25-10.25c0-5.66-4.589-10.25-10.25-10.25zm0 18.231a7.98 7.98 0 0 1-7.981-7.981c0-4.408 3.573-7.981 7.981-7.981s7.981 3.573 7.981 7.981a7.98 7.98 0 0 1-7.981 7.981zM116.54 124.835l-58.896.083s-.172 2.7-.457 3.574l59.824.224c.001.001-.554-2.225-.471-3.881z"/>
<path stroke-linecap="round" stroke-linejoin="round" d="M35.375 109.335S30 112.314 19.75 111.543l.438-.396-1.625-1.031-1.938 1.844v10.438s1.313 4.312 2.75 5.062l13.563 1.188s-.75-5.563 1.063-8.938 5.625-5.5 5.625-5.5l-4.251-4.875zM142.73 108.616l-7.105 6.26s4.137 2.833 5.088 5.958.786 4.583.786 4.583l.579.875 5.047-.042s4.178.542 5.874-6.667l-.156-6.812c.001.002-5.8.377-10.113-4.155z"/>
<path stroke-linecap="round" stroke-linejoin="round" d="M50.125 100.835s1.375 1.708 3.937 3.313c0 0-16.625.437-22.937 2.437s-11.25 4.5-11.25 4.5l-1.438-.937c.001 0 7.313-6.938 31.688-9.313zM132.063 87.773l-.055.03-1.695.908 3.271 4.25s1.229 3.938 3.479 6.438c0 0 4.625 13.656 15.469 13.187l-.781-.75s-2.813-2.437-3.063-7.5c-.25-5.063-5.625-11.376-16.625-16.563z"/>
<path stroke-linecap="round" stroke-linejoin="round" d="M133.583 92.96s3.583 11.083 12.667 11.917c0 0-1.917-7.334-12.667-11.917zM19.75 111.543c-.261-.035 6.75-4.333 14.583-5.583 0 0 2.958-.417 4.75 1.333 0 0-8.083 5.75-19.333 4.25zM19.67 123.87c-.053.303-.058.662.08 1.007.333.833 2 .917 4.417.5 2.417-.417 3.75-1.083 3-2.833-.69-1.611-2.652-2.869-6.274-.199-.313.23-1.148 1.097-1.223 1.525zM122.333 89.543l5.083 7.917s5.195-.904 3.667-4.833c-.583-1.5-8.75-3.084-8.75-3.084zM51.438 100.085s1.438 1.542 2.688 2.25c0 0 10.625-7.875 25.938-12.562l-.625-1.438c-.001 0-11.189 2.188-28.001 11.75z"/>
<path stroke-linecap="round" stroke-linejoin="round" d="M146.563 98.773h-4.188s-3.031-3.469-8.469-5.563l-3.594-4.5 1.695-.908s10.649 4.689 14.556 10.971zM121.25 89.543s-3.833-1.333-8.167-1.333c-2.5 0-14 .25-14 .25-1.068 1.899-1.846 5.67-2.24 9.094-.435 3.789-.427 7.156-.427 7.156v20.167l16.417-.083c6.167-10.167 14-20.5 14-20.5v-6.167l-5.583-8.584zm-23 10.23c.125-5.313 1.875-10.375 1.875-10.375s11.25-.188 14.125-.188 6.187 1.25 6.187 1.25l4.719 7.844-26.906 1.469z"/>
<path stroke-linecap="round" stroke-linejoin="round" d="M97.75 88.543c-4.75.25-11.167 1-11.167 1-12.583 1.917-32 14.583-32 14.583h5.25c-.667 9.917.667 20.667.667 20.667h34.917s-.167-15.5 0-22.5c.166-7 2.333-13.75 2.333-13.75zm-3.875 11.855L62.5 103.46l-1.188-2.062c9.671-5.47 17.146-8.614 22.625-10.063 2.385-.63 6.063-1.062 6.063-1.062l5.625-.5c-1.5 5.812-1.75 10.625-1.75 10.625z"/>
<path stroke-linecap="round" stroke-linejoin="round" d="M61.312 101.398l4.875-2.75s5.563.75 2.125 4.062l-5.813.75-1.187-2.062z"/>
<path d="M57.378 7.434s.379 2.008.379 3.066c0 6.907-5.599 12.506-12.506 12.506S32.744 17.407 32.744 10.5c0-1.079.137-2.125.393-3.124l-13.762 1.09s-2.75 3.125-2.75 5.875v9.625s6.5 8.75 33.5 11.125c0 0 20.375 12.125 36.5 14s34 1.625 44.75-.625c0 0 16.125-6.625 17.5-17.375 0 0 .125-6.25 4.25-7.875v-6.875s-1.5-6.625-5.5-6.625h-5.708l-.285.617c0 6.907-5.599 12.506-12.506 12.506S116.62 17.24 116.62 10.333c0-1.079.137-2.125.393-3.124l-59.635.225z"/>
<path stroke-linecap="round" stroke-linejoin="round" d="M79.458 47.8l.708-1.583s6.625 1.833 17.625 2.083 16.875.208 16.875.208 3.5-.042 6.625-.958l8.75-.208 1.917.958s-6.25 1.792-16.75 1.958c-10.5.167-19.822-.248-24-.583-4.666-.375-11.75-1.875-11.75-1.875zM126.875 37.623l8.531.938s1.531-1.938 1.813-2.281c0 0 2.531-6.281 5.469-8.875l-7.281-6.313s-2.625 2.125-6.75 1.719-5.469-1.406-5.469-1.406-3.562-2.094-5-4.938c-1.437-2.844-1.687-5.219-1.687-5.219h-3.719l6.781 10.094 7.188 10.281.124 6zM59.875 31.81s-18.75-.063-24.75-1.563c0 0 3.125-.344 3.938-1.531 0 0-2-1.375-3.688-2.094l4.156-4.844s3.219 1.75 7.25 1.156 6.625-2.625 7.875-4.125c1.077-1.292 3.031-3.906 3.031-7.5h2.75c0 .001-1.312 14.657-.562 20.501z"/>
<path stroke-linecap="round" stroke-linejoin="round" d="M129.161 20.75c-5.661 0-10.25-4.589-10.25-10.25S123.5.25 129.161.25s10.25 4.589 10.25 10.25-4.589 10.25-10.25 10.25zm0-18.231c-4.408 0-7.981 3.573-7.981 7.981s3.573 7.981 7.981 7.981 7.981-3.573 7.981-7.981-3.573-7.981-7.981-7.981zM45.25 20.75C39.589 20.75 35 16.161 35 10.5S39.589.25 45.25.25 55.5 4.839 55.5 10.5s-4.589 10.25-10.25 10.25zm0-18.231c-4.408 0-7.981 3.573-7.981 7.981s3.573 7.981 7.981 7.981 7.981-3.573 7.981-7.981-3.573-7.981-7.981-7.981zM116.54 11.091l-58.896-.083s-.172-2.7-.457-3.574l59.824-.224c.001 0-.554 2.225-.471 3.881z"/>
<path stroke-linecap="round" stroke-linejoin="round" d="M35.375 26.591S30 23.612 19.75 24.383l.438.396-1.625 1.031-1.938-1.844V13.529s1.313-4.313 2.75-5.063l13.563-1.188s-.75 5.563 1.063 8.938 5.625 5.5 5.625 5.5l-4.251 4.875zM142.73 27.31l-7.105-6.26s4.137-2.833 5.088-5.958.786-4.583.786-4.583l.579-.875 5.047.042s4.178-.542 5.874 6.667l-.156 6.813c.001-.002-5.8-.377-10.113 4.154z"/>
<path stroke-linecap="round" stroke-linejoin="round" d="M50.125 35.091s1.375-1.708 3.937-3.313c0 0-16.625-.438-22.937-2.438s-11.25-4.5-11.25-4.5l-1.438.938c.001.001 7.313 6.938 31.688 9.313zM132.063 48.154l-.055-.03-1.695-.908 3.271-4.25s1.229-3.938 3.479-6.438c0 0 4.625-13.656 15.469-13.188l-.781.75s-2.813 2.438-3.063 7.5-5.625 11.376-16.625 16.564z"/>
<path stroke-linecap="round" stroke-linejoin="round" d="M133.583 42.966s3.583-11.083 12.667-11.917c0 .001-1.917 7.334-12.667 11.917zM19.75 24.383c-.261.035 6.75 4.333 14.583 5.583 0 0 2.958.417 4.75-1.333 0 0-8.083-5.75-19.333-4.25zM19.67 12.056c-.053-.303-.058-.662.08-1.007.333-.833 2-.917 4.417-.5 2.417.417 3.75 1.083 3 2.833-.69 1.611-2.652 2.869-6.274.199-.313-.23-1.148-1.096-1.223-1.525zM122.333 46.383l5.083-7.917s5.195.904 3.667 4.833c-.583 1.501-8.75 3.084-8.75 3.084zM51.438 35.841s1.438-1.542 2.688-2.25c0 0 10.625 7.875 25.938 12.563l-.625 1.438c-.001-.001-11.189-2.188-28.001-11.751z"/>
<path stroke-linecap="round" stroke-linejoin="round" d="M146.563 37.154h-4.188s-3.031 3.469-8.469 5.563l-3.594 4.5 1.695.908c0-.001 10.649-4.69 14.556-10.971zM121.25 46.383s-3.833 1.333-8.167 1.333c-2.5 0-14-.25-14-.25-1.068-1.899-1.846-5.67-2.24-9.094-.435-3.789-.427-7.156-.427-7.156V11.05l16.417.083c6.167 10.167 14 20.5 14 20.5V37.8l-5.583 8.583zm-23-10.229c.125 5.313 1.875 10.375 1.875 10.375s11.25.188 14.125.188 6.187-1.25 6.187-1.25l4.719-7.844-26.906-1.469z"/>
<path stroke-linecap="round" stroke-linejoin="round" d="M97.75 47.383c-4.75-.25-11.167-1-11.167-1-12.583-1.917-32-14.583-32-14.583h5.25c-.666-9.917.667-20.667.667-20.667h34.917s-.167 15.5 0 22.5c.166 7 2.333 13.75 2.333 13.75zm-3.875-11.854L62.5 32.466l-1.188 2.063c9.671 5.47 17.146 8.614 22.625 10.063 2.385.63 6.063 1.062 6.063 1.062l5.625.5c-1.5-5.813-1.75-10.625-1.75-10.625z"/>
<path stroke-linecap="round" stroke-linejoin="round" d="M61.312 34.529l4.875 2.75s5.563-.75 2.125-4.063l-5.813-.75-1.187 2.063zM77 49.377s32 3.25 54.167 2.25V83.71s-43 .917-54 2.833c0 0-.858-10.583-.917-20.583-.049-8.421.693-16.526.75-16.583z"/>
<path stroke-linecap="round" stroke-linejoin="round" d="M77 49.377l-24.75-3.583s-8.667 2.25-8.667 21.167S50.5 89.543 50.5 89.543l26.667-3S75.333 60.627 77 49.377zM131.167 51.627s.417-3 2.917-3.5S145 49.46 146.5 58.877s.167 18.167.167 18.167-.75 10.333-11.667 11.083c0 0-3.833-.333-3.833-4.417s.125-32.208 0-32.083z"/>
<path stroke-linecap="round" stroke-linejoin="round" d="M137.5 48.377s2.583-2.917 11.667-2.917c0 0 3.667-5.917 8.417-5.917v57.083s-5.833-2.167-7.667-6.25c0 0-6.833 1.417-12.5-2.583 0 0 6.896-1.333 8.708-8.333.829-3.202 1.083-7.214 1.114-10.626.037-4.047-.2-10.508-1.865-13.873-1.303-2.633-3.649-5.331-7.874-6.584z"/>
<path stroke-linecap="round" stroke-linejoin="round" d="M157.583 39.543v56.792s8.354 1 11.979-3.562V43.148c.001 0-1.77-3.605-11.979-3.605z"/>
<ellipse stroke-linecap="round" stroke-linejoin="round" cx="162.625" cy="45.585" rx="1.688" ry="2.875"/>
<ellipse stroke-linecap="round" stroke-linejoin="round" cx="162.625" cy="91.085" rx="1.688" ry="2.875"/>
<path stroke-linecap="round" stroke-linejoin="round" d="M52.25 45.793s-16.125.479-31 7.729c0 0-2.313 4.937-2.313 14.187s1.938 14.188 1.938 14.188 14.188 7.167 29.625 7.646c0 0-7.009-3.833-6.938-23.583.063-17.375 8.688-20.167 8.688-20.167zM137.813 48.273s4.625 2.687 10.188 2.187c0 0 .375-3.25-2.813-4.75 0 0-5.125.188-7.375 2.563zM137.813 87.835s4.625-2.688 10.188-2.188c0 0 .375 3.25-2.813 4.75 0 0-5.125-.187-7.375-2.562zM22.438 43.023s-5.313 1.812-6.625 6.5v4.875s.188.375 1.938-.875 4.499-4.625 4.687-10.5zM22.438 93.2s-5.313-1.813-6.625-6.5v-4.875s.188-.375 1.938.875 4.499 4.625 4.687 10.5zM7.375 47.898c0 2.589-.89 3.875-2.219 3.875S2.75 50.674 2.75 48.085c0-2.589-.188-4.687 2.406-4.687 2.719 0 2.219 1.911 2.219 4.5zM7.375 88.46c0-2.589-.89-3.875-2.219-3.875S2.75 85.684 2.75 88.273c0 2.589-.188 4.687 2.406 4.687 2.719 0 2.219-1.911 2.219-4.5z"/>
<path stroke-linecap="round" stroke-linejoin="round" d="M15.813 86.7c-.313-2.428 0-4.875 0-4.875s1.5.072 2.375 1.01v-29.5s-2.375 1.438-2.375 1.063v-4.875s1.125-3.313 3.688-4.813c0 0 .063-2.812-3.563-5.687 0 0-11.688-.25-15.688 3.5v51.062s5.563 3.5 15.063 2.875c0 0 2.75-1.312 4-4.812 0 0-3.188-2.52-3.5-4.948zM5.188 79.148c0 .653-.534 1.187-1.188 1.187s-1.188-.534-1.188-1.187V56.585c0-.653.534-1.187 1.188-1.187s1.188.534 1.188 1.187v22.563zM12 83.585s-2.188-3.25-2.188-15.812c0-12.563 1.875-15.688 1.875-15.688l4.188 5.313v21.437L12 83.585z"/>
</g>
</svg>